# xmcd
#
# Track frame offsets: 
#        150
#        18177
#        32526
#        47898
#        61838
#        74256
#        86338
#        100271
#        111270
#        125773
#        135494
#
# Disc length: 2048 seconds
#
# Revision: 0
# Processed by: cddbd v1.5.2PL0 Copyright (c) Steve Scherf et al.
# Submitted via: ExactAudioCopyFreeDBPlugin 1.0
#
DISCID=8d07fe0b
DTITLE=Supersuckers - Holdin' the Bag
DYEAR=2015
DGENRE=Country
TTITLE0=Holdin' The Bag
TTITLE1=This Life (Would Be A Whole Lot Better If I Didn't Have To Sha
TTITLE1=re It) With You
TTITLE2=High and Outside
TTITLE3=Man On A Mission
TTITLE4=I Can't Cry (featuring Lydia Loveless)
TTITLE5=Let's Bounce
TTITLE6=I Do What I Can (To Get By)
TTITLE7=Jibber Jabber
TTITLE8=That's How It Gets Done
TTITLE9=Shimmy and Shake
TTITLE10=All My Rowdy Friends (Have Settled Down)
EXTD=
EXTT0=
EXTT1=
EXTT2=
EXTT3=
EXTT4=
EXTT5=
EXTT6=
EXTT7=
EXTT8=
EXTT9=
EXTT10=
PLAYORDER=
